<svg xmlns="http://www.w3.org/2000/svg"  viewBox="0 0 48 48" width="48px" height="48px"><path d="M 15 1 C 12.252294 1 10 3.252294 10 6 C 10 8.747706 12.252294 11 15 11 C 17.747706 11 20 8.747706 20 6 C 20 3.252294 17.747706 1 15 1 z M 33 1 C 31.141757 1 29.579414 2.0203485 28.583984 3.46875 C 27.588555 4.9171515 27.076172 6.7929573 27.076172 8.7695312 A 1.0001 1.0001 0 0 0 27.546875 9.6171875 C 27.546875 9.6171875 29.765466 11 33 11 C 36.234534 11 38.453125 9.6171875 38.453125 9.6171875 A 1.0001 1.0001 0 0 0 38.923828 8.7695312 C 38.923828 6.7929572 38.411445 4.9171515 37.416016 3.46875 C 36.420586 2.0203485 34.858243 1 33 1 z M 15 3 C 16.662294 3 18 4.337706 18 6 C 18 7.662294 16.662294 9 15 9 C 13.337706 9 12 7.662294 12 6 C 12 4.337706 13.337706 3 15 3 z M 33 3 C 34.157757 3 35.055508 3.565464 35.767578 4.6015625 C 36.387033 5.5029017 36.746147 6.7888976 36.84375 8.1699219 C 36.266996 8.4642287 35.062427 9 33 9 C 30.937573 9 29.733004 8.4642287 29.15625 8.1699219 C 29.253853 6.7888976 29.612967 5.5029017 30.232422 4.6015625 C 30.944492 3.565464 31.842243 3 33 3 z M 14 13 C 9.5908096 13 6 16.59081 6 21 L 6 28.5 C 6 30.098191 7.1108903 31.401749 8.5839844 31.814453 L 9.9257812 43.345703 A 1.0001 1.0001 0 0 0 9.9277344 43.347656 C 10.106844 44.855093 11.398506 46 12.910156 46 L 20.960938 46 A 1.0001 1.0001 0 0 0 21.951172 44.873047 L 20.951172 37.091797 A 1.0001 1.0001 0 0 0 20.011719 36.220703 C 19.585855 36.198289 19.25 35.852144 19.25 35.419922 L 19.25 30.029297 C 19.25 27.788865 21.038865 26 23.279297 26 L 24.720703 26 C 26.961135 26 28.75 27.788865 28.75 30.029297 L 28.75 35.419922 C 28.75 35.852144 28.414145 36.198289 27.988281 36.220703 A 1.0001 1.0001 0 0 0 27.048828 37.091797 L 26.048828 44.873047 A 1.0001 1.0001 0 0 0 27.039062 46 L 35.089844 46 C 36.600563 46 37.896314 44.852488 38.0625 43.339844 L 38.064453 43.337891 L 38.808594 37 L 40.619141 37 C 42.461291 37 43.902413 35.30241 43.574219 33.482422 L 41.025391 18.798828 C 40.442813 15.454834 37.521959 13 34.130859 13 L 31.869141 13 C 30.27043 13 28.755111 13.545918 27.558594 14.496094 A 1.000189 1.000189 0 1 0 28.802734 16.0625 C 29.646217 15.392675 30.727851 15 31.869141 15 L 34.130859 15 C 36.55976 15 38.637265 16.746572 39.054688 19.142578 L 41.605469 33.830078 A 1.0001 1.0001 0 0 0 41.605469 33.837891 C 41.717274 34.457916 41.25699 35 40.619141 35 L 37.919922 35 A 1.0001 1.0001 0 0 0 36.927734 35.882812 L 36.076172 43.113281 A 1.0001 1.0001 0 0 0 36.076172 43.121094 C 36.021066 43.62708 35.598194 44 35.089844 44 L 28.175781 44 L 28.970703 37.8125 C 29.959506 37.377132 30.75 36.560506 30.75 35.419922 L 30.75 30.029297 C 30.75 27.646298 29.349963 25.583107 27.333984 24.605469 C 27.345662 24.592678 27.361559 24.583237 27.373047 24.570312 C 28.139653 23.707881 28.5 22.597222 28.5 21.5 C 28.5 20.402778 28.139653 19.292118 27.373047 18.429688 C 26.606441 17.567256 25.416666 17 24 17 C 22.583334 17 21.393559 17.567256 20.626953 18.429688 C 19.860347 19.292119 19.5 20.402778 19.5 21.5 C 19.5 22.597222 19.860347 23.707882 20.626953 24.570312 C 20.638441 24.583237 20.654338 24.592678 20.666016 24.605469 C 18.650037 25.583107 17.25 27.646298 17.25 30.029297 L 17.25 35.419922 C 17.25 36.560506 18.040494 37.377132 19.029297 37.8125 L 19.824219 44 L 12.910156 44 C 12.403352 44 11.976993 43.625359 11.914062 43.115234 L 10.490234 30.888672 A 1.0001 1.0001 0 0 0 9.5234375 30.005859 C 9.5015145 30.005297 9.4706406 30.003953 9.4316406 30.001953 A 1.0001 1.0001 0 0 0 9.4257812 30.001953 C 8.6353611 29.966019 8 29.312637 8 28.5 L 8 21 C 8 17.66919 10.66919 15 14 15 L 16 15 C 17.259087 15 18.405862 15.374978 19.363281 16.033203 A 1.0001 1.0001 0 1 0 20.496094 14.386719 C 19.213513 13.504944 17.660913 13 16 13 L 14 13 z M 24 19 C 24.916666 19 25.476893 19.307744 25.876953 19.757812 C 26.277013 20.207881 26.5 20.847222 26.5 21.5 C 26.5 22.152778 26.277013 22.792118 25.876953 23.242188 C 25.476893 23.692256 24.916666 24 24 24 C 23.083334 24 22.523107 23.692256 22.123047 23.242188 C 21.722987 22.792119 21.5 22.152778 21.5 21.5 C 21.5 20.847222 21.722987 20.207882 22.123047 19.757812 C 22.523107 19.307744 23.083334 19 24 19 z"/></svg>